<svg width="48" height="48" viewBox="0 0 48 48" fill="none" xmlns="http://www.w3.org/2000/svg">
<rect width="48" height="48" rx="8" fill="#18191A"/>
<path d="M29.9487 15.1366C31.9188 15.1366 33.5165 13.5389 33.5165 11.5688C33.5165 9.59865 31.9188 8.00098 29.9487 8.00098C27.9785 8.00098 26.3809 9.59865 26.3809 11.5688C26.3809 13.5389 27.9785 15.1366 29.9487 15.1366Z" fill="#FEFEFE"/>
<path d="M32.4112 25.1878C31.8963 25.1878 31.3793 25.0026 30.9682 24.6281C28.0679 21.9884 24.6385 20.4945 20.7716 20.1872C17.8164 19.9531 15.6956 20.5332 15.6733 20.5393C14.5356 20.867 13.351 20.2096 13.0234 19.0719C12.6957 17.9342 13.3571 16.7435 14.4948 16.4159C14.9243 16.2917 25.0965 13.481 33.8562 21.4572C34.7314 22.255 34.7945 23.6105 33.9987 24.4856C33.5753 24.9497 32.9953 25.1858 32.4132 25.1858L32.4112 25.1878Z" fill="#FEFEFE"/>
<path d="M32.9124 39.9984C31.8378 39.9984 30.9118 39.1925 30.7856 38.0995C30.2768 33.7054 28.445 30.5996 25.3372 28.8717C22.9397 27.5366 20.6052 27.506 20.5828 27.506C19.4044 27.5081 18.4397 26.5576 18.4336 25.3731C18.4275 24.1886 19.3882 23.2239 20.5727 23.2178C20.7111 23.2178 23.8759 23.2218 27.2178 25.0129C30.3154 26.6736 34.1885 30.2048 35.0453 37.607C35.1817 38.7834 34.3371 39.8478 33.1607 39.9842C33.0773 39.9944 32.9938 39.9984 32.9124 39.9984Z" fill="#FEFEFE"/>
<path d="M24.3287 32.0106C22.7371 30.9055 20.7528 30.2705 18.8844 30.2705C17.4862 30.2705 16.2162 30.6063 15.109 31.2678C14.3743 31.7054 14.0588 32.4869 14.2847 33.3051C14.5229 34.166 15.2495 34.7664 16.0534 34.7664C16.3729 34.7664 16.6884 34.6728 16.9957 34.4896C17.071 34.4448 17.2216 34.3838 17.2847 34.3593C17.2949 34.3553 17.3071 34.3512 17.3213 34.343C17.8057 34.1884 18.1741 34.0866 18.3593 34.05C18.4021 34.0479 18.4936 34.0378 18.571 34.0317C18.6219 34.0276 18.6666 34.0215 18.6809 34.0215C18.8091 34.0133 18.9394 34.0093 19.0696 34.0093C19.1164 34.0093 19.1653 34.0093 19.2121 34.0093C19.5438 34.0174 19.7453 34.0398 20.0384 34.1049C20.8281 34.28 21.5628 34.6239 22.4156 35.2162C22.672 35.3953 22.9834 35.4889 23.3172 35.4889C23.9868 35.4889 24.6584 35.1144 24.9841 34.5547C25.4868 33.6938 25.212 32.6233 24.3267 32.0086L24.3287 32.0106Z" fill="#FEFEFE"/>
</svg>
