<svg width="109" height="158" viewBox="0 0 109 158" fill="none" xmlns="http://www.w3.org/2000/svg">
<path d="M83.573 35.06C93.253 35.06 101.103 27.21 101.103 17.53C101.103 7.85 93.253 0 83.573 0C73.893 0 66.043 7.85 66.043 17.53C66.043 27.21 73.893 35.06 83.573 35.06Z" fill="#FEFEFE"/>
<path d="M95.6723 84.4494C93.1423 84.4494 90.6023 83.5394 88.5823 81.6994C74.3323 68.7294 57.4823 61.3894 38.4823 59.8794C23.9623 58.7294 13.5423 61.5794 13.4323 61.6094C7.84227 63.2194 2.02228 59.9894 0.412276 54.3994C-1.19772 48.8094 2.05228 42.9594 7.64228 41.3494C9.75228 40.7394 59.7323 26.9294 102.772 66.1194C107.072 70.0394 107.382 76.6994 103.472 80.9994C101.392 83.2794 98.5423 84.4394 95.6823 84.4394L95.6723 84.4494Z" fill="#FEFEFE"/>
<path d="M98.1323 157.239C92.8523 157.239 88.3023 153.279 87.6823 147.909C85.1823 126.319 76.1823 111.059 60.9123 102.569C49.1323 96.0091 37.6623 95.8591 37.5523 95.8591C31.7623 95.8691 27.0223 91.1991 26.9923 85.3791C26.9623 79.5591 31.6823 74.8191 37.5023 74.7891C38.1823 74.7891 53.7323 74.8091 70.1523 83.6091C85.3723 91.7691 104.402 109.119 108.612 145.489C109.282 151.269 105.132 156.499 99.3523 157.169C98.9423 157.219 98.5323 157.239 98.1323 157.239Z" fill="#FEFEFE"/>
<path d="M55.9609 117.98C48.1409 112.55 38.3909 109.43 29.2109 109.43C22.3409 109.43 16.1009 111.08 10.6609 114.33C7.05086 116.48 5.50086 120.32 6.61086 124.34C7.78086 128.57 11.3509 131.52 15.3009 131.52C16.8709 131.52 18.4209 131.06 19.9309 130.16C20.3009 129.94 21.0409 129.64 21.3509 129.52C21.4009 129.5 21.4609 129.48 21.5309 129.44C23.9109 128.68 25.7209 128.18 26.6309 128C26.8409 127.99 27.2909 127.94 27.6709 127.91C27.9209 127.89 28.1409 127.86 28.2109 127.86C28.8409 127.82 29.4809 127.8 30.1209 127.8C30.3509 127.8 30.5909 127.8 30.8209 127.8C32.4509 127.84 33.4409 127.95 34.8809 128.27C38.7609 129.13 42.3709 130.82 46.5609 133.73C47.8209 134.61 49.3509 135.07 50.9909 135.07C54.2809 135.07 57.5809 133.23 59.1809 130.48C61.6509 126.25 60.3009 120.99 55.9509 117.97L55.9609 117.98Z" fill="#FEFEFE"/>
</svg>
