<svg width="109" height="158" viewBox="0 0 109 158" fill="none" xmlns="http://www.w3.org/2000/svg">
<path d="M83.571 35.06C93.251 35.06 101.101 27.21 101.101 17.53C101.101 7.85 93.251 0 83.571 0C73.891 0 66.041 7.85 66.041 17.53C66.041 27.21 73.891 35.06 83.571 35.06Z" fill="#18191A"/>
<path d="M95.6723 84.4494C93.1423 84.4494 90.6023 83.5394 88.5823 81.6994C74.3323 68.7294 57.4823 61.3894 38.4823 59.8794C23.9623 58.7294 13.5423 61.5794 13.4323 61.6094C7.84227 63.2194 2.02228 59.9894 0.412276 54.3994C-1.19772 48.8094 2.05228 42.9594 7.64228 41.3494C9.75228 40.7394 59.7323 26.9294 102.772 66.1194C107.072 70.0394 107.382 76.6994 103.472 80.9994C101.392 83.2794 98.5423 84.4394 95.6823 84.4394L95.6723 84.4494Z" fill="#18191A"/>
<path d="M98.1323 157.239C92.8523 157.239 88.3023 153.279 87.6823 147.909C85.1823 126.319 76.1823 111.059 60.9123 102.569C49.1323 96.0091 37.6623 95.8591 37.5523 95.8591C31.7623 95.8691 27.0223 91.1991 26.9923 85.3791C26.9623 79.5591 31.6823 74.8191 37.5023 74.7891C38.1823 74.7891 53.7323 74.8091 70.1523 83.6091C85.3723 91.7691 104.402 109.119 108.612 145.489C109.282 151.269 105.132 156.499 99.3523 157.169C98.9423 157.219 98.5323 157.239 98.1323 157.239Z" fill="#18191A"/>
<path d="M55.9628 117.98C48.1428 112.55 38.3928 109.43 29.2128 109.43C22.3428 109.43 16.1028 111.08 10.6628 114.33C7.05281 116.48 5.50281 120.32 6.61281 124.34C7.78281 128.57 11.3528 131.52 15.3028 131.52C16.8728 131.52 18.4228 131.06 19.9328 130.16C20.3028 129.94 21.0428 129.64 21.3528 129.52C21.4028 129.5 21.4628 129.48 21.5328 129.44C23.9128 128.68 25.7228 128.18 26.6328 128C26.8428 127.99 27.2928 127.94 27.6728 127.91C27.9228 127.89 28.1428 127.86 28.2128 127.86C28.8428 127.82 29.4828 127.8 30.1228 127.8C30.3528 127.8 30.5928 127.8 30.8228 127.8C32.4528 127.84 33.4428 127.95 34.8828 128.27C38.7628 129.13 42.3728 130.82 46.5628 133.73C47.8228 134.61 49.3528 135.07 50.9928 135.07C54.2828 135.07 57.5828 133.23 59.1828 130.48C61.6528 126.25 60.3028 120.99 55.9528 117.97L55.9628 117.98Z" fill="#18191A"/>
</svg>
