<svg width="584" height="164" viewBox="0 0 584 164" fill="none" xmlns="http://www.w3.org/2000/svg">
<g clip-path="url(#clip0_7731_3506)">
<path d="M83.58 35.06C93.26 35.06 101.11 27.21 101.11 17.53C101.11 7.85 93.26 0 83.58 0C73.9 0 66.05 7.85 66.05 17.53C66.05 27.21 73.9 35.06 83.58 35.06Z" fill="#18191A"/>
<path d="M95.6801 84.4499C93.1501 84.4499 90.6101 83.5399 88.5901 81.6999C74.3401 68.7299 57.4901 61.3899 38.4901 59.8799C23.9701 58.7299 13.5501 61.5799 13.4401 61.6099C7.85009 63.2199 2.03009 59.9899 0.420088 54.3999C-1.18991 48.8099 2.06009 42.9599 7.65009 41.3499C9.76009 40.7399 59.7401 26.9299 102.78 66.1199C107.08 70.0399 107.39 76.6999 103.48 80.9999C101.4 83.2799 98.5501 84.4399 95.6901 84.4399L95.6801 84.4499Z" fill="#18191A"/>
<path d="M98.1401 157.24C92.8601 157.24 88.3101 153.28 87.6901 147.91C85.1901 126.32 76.1901 111.06 60.9201 102.57C49.1401 96.01 37.6701 95.86 37.5601 95.86C31.7701 95.87 27.0301 91.2 27.0001 85.38C26.9701 79.56 31.6901 74.82 37.5101 74.79C38.1901 74.79 53.7401 74.81 70.1601 83.61C85.3801 91.77 104.41 109.12 108.62 145.49C109.29 151.27 105.14 156.5 99.3601 157.17C98.9501 157.22 98.5401 157.24 98.1401 157.24Z" fill="#18191A"/>
<path d="M55.9701 117.98C48.1501 112.55 38.4001 109.43 29.2201 109.43C22.3501 109.43 16.1101 111.08 10.6701 114.33C7.06014 116.48 5.51014 120.32 6.62014 124.34C7.79014 128.57 11.3601 131.52 15.3101 131.52C16.8801 131.52 18.4301 131.06 19.9401 130.16C20.3101 129.94 21.0501 129.64 21.3601 129.52C21.4101 129.5 21.4701 129.48 21.5401 129.44C23.9201 128.68 25.7301 128.18 26.6401 128C26.8501 127.99 27.3001 127.94 27.6801 127.91C27.9301 127.89 28.1501 127.86 28.2201 127.86C28.8501 127.82 29.4901 127.8 30.1301 127.8C30.3601 127.8 30.6001 127.8 30.8301 127.8C32.4601 127.84 33.4501 127.95 34.8901 128.27C38.7701 129.13 42.3801 130.82 46.5701 133.73C47.8301 134.61 49.3601 135.07 51.0001 135.07C54.2901 135.07 57.5901 133.23 59.1901 130.48C61.6601 126.25 60.3101 120.99 55.9601 117.97L55.9701 117.98Z" fill="#18191A"/>
<path d="M164.77 67.22H154.87V9.45996H164.77V67.22Z" fill="#18191A"/>
<path d="M185.39 67.2202H175.65V23.4902H183.49L184.32 29.9302C185.69 27.6202 187.7 25.7502 190.34 24.3202C192.98 22.8902 195.9 22.1702 199.09 22.1702C203.77 22.1702 207.51 23.6302 210.31 26.5402C213.12 29.4602 214.52 33.3602 214.52 38.2602V67.2202H204.78V38.7502C204.78 36.2702 204.01 34.3102 202.47 32.8502C200.93 31.3902 198.81 30.6602 196.12 30.6602C192.98 30.6602 190.43 31.6102 188.45 33.5102C186.47 35.4102 185.45 37.8202 185.4 40.7302V67.2202H185.39Z" fill="#18191A"/>
<path d="M247.69 67.2201H242.08C237.35 67.2201 233.73 66.0801 231.23 63.8001C228.73 61.5201 227.48 58.2001 227.48 53.8601V31.7501H219.81V23.5001H227.48V8.56006H237.22V23.5001H248.52V31.7501H237.22V53.2001C237.22 57.0501 239.06 58.9801 242.75 58.9801H247.7V67.2301L247.69 67.2201Z" fill="#18191A"/>
<path d="M274.93 68.4602C268.27 68.4602 262.85 66.3102 258.67 62.0202C254.49 57.7302 252.4 52.2302 252.4 45.5202C252.4 38.4202 254.45 32.7602 258.55 28.5202C262.65 24.2802 267.83 22.1702 274.1 22.1702C280.37 22.1702 285.32 24.2202 289.12 28.3202C292.92 32.4202 294.87 37.9902 294.98 45.0302V47.3402H262.14C262.47 51.2502 263.78 54.3702 266.06 56.7102C268.34 59.0502 271.33 60.2202 275.01 60.2202C277.54 60.2202 279.71 59.6302 281.53 58.4502C283.35 57.2702 284.61 55.5802 285.33 53.3702H294.82C293.72 58.1002 291.41 61.8002 287.89 64.4702C284.37 67.1402 280.05 68.4702 274.94 68.4702L274.93 68.4602ZM262.55 40.4902H284.91C284.3 37.3002 283.05 34.8202 281.16 33.0602C279.26 31.3002 276.91 30.4202 274.11 30.4202C271.31 30.4202 268.8 31.3102 266.77 33.1002C264.73 34.8902 263.33 37.3502 262.56 40.4902H262.55Z" fill="#18191A"/>
<path d="M312.31 67.22H302.57V23.49H310.41L311.56 32.07C314.42 26.02 319.48 22.99 326.74 22.99H328.39V32.48H326.74C322.17 32.48 318.62 33.64 316.09 35.95C313.56 38.26 312.29 41.48 312.29 45.6V67.22H312.31Z" fill="#18191A"/>
<path d="M164.77 147.36H154.87V89.6001H183.09C188.59 89.6001 193.06 91.1101 196.5 94.1401C199.94 97.1701 201.66 101.1 201.66 105.94C201.66 109.46 200.5 112.58 198.19 115.31C195.88 118.03 192.8 119.89 188.95 120.88C192.8 121.65 195.44 123.85 196.87 127.48L204.3 147.37H193.74L187.06 129.13C186.23 126.77 184.45 125.58 181.7 125.58H164.78V147.36H164.77ZM164.77 98.5101V116.83H182.59C185.5 116.83 187.77 115.92 189.4 114.11C191.02 112.29 191.83 110.07 191.83 107.43C191.83 104.79 190.99 102.64 189.31 100.99C187.63 99.3401 185.39 98.5101 182.59 98.5101H164.77Z" fill="#18191A"/>
<path d="M227.23 148.6C221.29 148.6 216.42 146.43 212.62 142.08C208.82 137.74 206.93 132.12 206.93 125.25C206.93 118.38 208.8 112.97 212.54 108.71C216.28 104.45 221.07 102.32 226.9 102.32C230.25 102.32 233.3 103.05 236.02 104.51C238.74 105.97 240.82 107.96 242.25 110.49L243.08 103.64H250.92V147.37H241.27V141.43C238.24 146.22 233.57 148.61 227.24 148.61L227.23 148.6ZM220.3 136.14C222.55 138.95 225.47 140.35 229.05 140.35C232.63 140.35 235.56 138.93 237.84 136.1C240.12 133.27 241.26 129.62 241.26 125.17C241.26 120.72 240.15 117.29 237.92 114.57C235.69 111.85 232.79 110.49 229.21 110.49C225.63 110.49 222.62 111.87 220.34 114.62C218.06 117.37 216.92 120.95 216.92 125.35C216.92 129.75 218.05 133.35 220.3 136.16V136.14Z" fill="#18191A"/>
<path d="M271.13 163.87H261.31V103.63H269.15L270.14 110.81C271.62 108.23 273.73 106.16 276.45 104.62C279.17 103.08 282.24 102.31 285.65 102.31C291.43 102.31 296.16 104.44 299.84 108.7C303.52 112.96 305.37 118.48 305.37 125.24C305.37 132 303.53 137.73 299.84 142.07C296.15 146.42 291.39 148.59 285.56 148.59C282.48 148.59 279.67 147.94 277.14 146.65C274.61 145.36 272.6 143.56 271.12 141.25V163.86L271.13 163.87ZM283.42 140.35C286.94 140.35 289.82 138.95 292.04 136.14C294.27 133.33 295.38 129.7 295.38 125.25C295.38 120.8 294.27 117.37 292.04 114.65C289.81 111.93 286.91 110.57 283.33 110.57C279.75 110.57 276.82 111.92 274.54 114.61C272.26 117.31 271.12 120.77 271.12 125.01C271.12 129.52 272.26 133.21 274.54 136.07C276.82 138.93 279.78 140.36 283.41 140.36L283.42 140.35Z" fill="#18191A"/>
<path d="M317.83 97.7699C316.07 97.7699 314.58 97.1499 313.37 95.9099C312.16 94.6699 311.55 93.1699 311.55 91.4099C311.55 89.6499 312.15 88.1599 313.37 86.9499C314.58 85.7399 316.06 85.1299 317.83 85.1299C319.6 85.1299 321.14 85.7399 322.33 86.9499C323.51 88.1599 324.1 89.6499 324.1 91.4099C324.1 93.1699 323.51 94.7399 322.33 95.9499C321.15 97.1599 319.65 97.7699 317.83 97.7699ZM322.7 147.36H312.96V103.63H322.7V147.36Z" fill="#18191A"/>
<path d="M350.59 148.6C344.65 148.6 339.78 146.43 335.99 142.08C332.19 137.74 330.3 132.12 330.3 125.25C330.3 118.38 332.17 112.97 335.91 108.71C339.65 104.45 344.44 102.32 350.27 102.32C356.54 102.32 361.33 104.55 364.63 109V85.48H374.37V147.37H366.53L365.62 139.61C364.35 142.42 362.41 144.62 359.8 146.21C357.19 147.8 354.12 148.6 350.6 148.6H350.59ZM343.66 136.14C345.92 138.95 348.83 140.35 352.41 140.35C355.99 140.35 358.91 138.93 361.2 136.1C363.48 133.27 364.62 129.62 364.62 125.17C364.62 120.72 363.51 117.29 361.28 114.57C359.05 111.85 356.15 110.49 352.57 110.49C348.99 110.49 345.98 111.87 343.7 114.62C341.42 117.37 340.28 120.95 340.28 125.35C340.28 129.75 341.41 133.35 343.66 136.16V136.14Z" fill="#18191A"/>
<path d="M403.32 87.29L388.14 99.75L383.11 94.47L398.05 82.26L403.33 87.29H403.32ZM394.16 147.36H384.42L384.5 103.63H394.24L394.16 147.36Z" fill="#18191A"/>
<path d="M421.56 148.6C415.62 148.6 410.93 147.27 407.49 144.6C404.05 141.93 402.2 138.2 401.92 133.42H411.33C411.5 135.73 412.47 137.5 414.26 138.74C416.05 139.98 418.32 140.6 421.07 140.6C426.13 140.6 428.66 138.84 428.66 135.32C428.66 133.89 428.22 132.86 427.34 132.23C426.46 131.6 424.95 130.95 422.8 130.29C422.47 130.18 422.22 130.1 422.06 130.04L416.28 128.14C414.08 127.43 412.32 126.78 411 126.2C409.68 125.62 408.3 124.84 406.87 123.85C405.44 122.86 404.39 121.65 403.74 120.22C403.08 118.79 402.75 117.11 402.75 115.19C402.75 111.23 404.19 108.09 407.08 105.78C409.97 103.47 414 102.31 419.17 102.31C424.34 102.31 428.47 103.63 431.71 106.27C434.95 108.91 436.85 112.68 437.4 117.57H428.16C427.66 112.73 424.64 110.31 419.08 110.31C416.93 110.31 415.27 110.74 414.09 111.59C412.91 112.44 412.32 113.61 412.32 115.1C412.32 115.49 412.36 115.83 412.44 116.13C412.52 116.43 412.66 116.72 412.85 117C413.04 117.28 413.22 117.52 413.39 117.74C413.56 117.96 413.82 118.18 414.17 118.4C414.53 118.62 414.82 118.79 415.04 118.9C415.26 119.01 415.6 119.16 416.07 119.35C416.54 119.54 416.88 119.68 417.1 119.76C417.32 119.84 417.69 119.97 418.21 120.13C418.73 120.3 419.08 120.41 419.24 120.46L424.52 122.19C429.41 123.84 432.95 125.57 435.12 127.39C437.29 129.21 438.38 131.93 438.38 135.56C438.38 139.63 436.91 142.82 433.97 145.13C431.03 147.44 426.89 148.6 421.55 148.6H421.56Z" fill="#18191A"/>
<path d="M450.27 97.7699C448.51 97.7699 447.02 97.1499 445.81 95.9099C444.6 94.6699 443.99 93.1699 443.99 91.4099C443.99 89.6499 444.59 88.1599 445.81 86.9499C447.02 85.7399 448.5 85.1299 450.27 85.1299C452.04 85.1299 453.58 85.7399 454.77 86.9499C455.95 88.1599 456.54 89.6499 456.54 91.4099C456.54 93.1699 455.95 94.7399 454.77 95.9499C453.59 97.1599 452.09 97.7699 450.27 97.7699ZM455.14 147.36H445.4V103.63H455.14V147.36Z" fill="#18191A"/>
<path d="M474.78 147.36H465.04V103.63H472.88L473.62 109.74C475.05 107.54 477.04 105.75 479.6 104.38C482.16 103.01 485.03 102.32 488.22 102.32C491.41 102.32 494.01 103.05 496.35 104.51C498.69 105.97 500.43 107.96 501.59 110.49C502.85 108.07 504.84 106.1 507.53 104.59C510.22 103.08 513.25 102.32 516.61 102.32C521.17 102.32 524.82 103.79 527.54 106.73C530.26 109.67 531.62 113.51 531.62 118.24V147.37H521.8V118.74C521.8 116.32 521.11 114.38 519.74 112.92C518.37 111.46 516.49 110.73 514.13 110.73C510.83 110.73 508.19 111.68 506.21 113.58C504.23 115.48 503.21 117.91 503.16 120.88V147.37H493.42V118.74C493.42 116.32 492.73 114.38 491.36 112.92C489.98 111.46 488.11 110.73 485.75 110.73C482.45 110.73 479.81 111.68 477.83 113.58C475.85 115.48 474.83 117.91 474.78 120.88V147.37V147.36Z" fill="#18191A"/>
<path d="M561.09 148.6C554.16 148.6 548.68 146.41 544.67 142.04C540.65 137.67 538.65 132.01 538.65 125.08C538.65 118.15 540.75 112.55 544.96 108.45C549.17 104.35 554.54 102.3 561.09 102.3C567.97 102.3 573.41 104.45 577.43 108.74C581.45 113.03 583.45 118.48 583.45 125.08C583.45 132.34 581.39 138.08 577.26 142.29C573.13 146.5 567.74 148.6 561.09 148.6ZM561.09 140.27C564.94 140.27 567.98 138.85 570.21 136.02C572.44 133.19 573.55 129.54 573.55 125.09C573.55 120.64 572.42 117.25 570.17 114.61C567.91 111.97 564.89 110.65 561.09 110.65C557.29 110.65 554.25 111.97 551.97 114.61C549.69 117.25 548.55 120.74 548.55 125.09C548.55 129.77 549.72 133.47 552.06 136.19C554.4 138.91 557.41 140.27 561.1 140.27H561.09Z" fill="#18191A"/>
</g>
<defs>
<clipPath id="clip0_7731_3506">
<rect width="583.46" height="163.87" fill="white"/>
</clipPath>
</defs>
</svg>
